<svg xmlns:xlink="http://www.w3.org/1999/xlink" xmlns="http://www.w3.org/2000/svg" width="200" height="46.600383242195484" viewBox="0 0 200 46.600383242195484" class="css-1j8o68f"><defs id="SvgjsDefs1340"></defs><g id="SvgjsG1341" featurekey="nameFeature-0" transform="matrix(1.7701149145875528,0,0,1.7701149145875528,0.000001266084848347344,-24.781607116112607)" fill="#ffffff"><path d="M0 14.2 c4.24 0.96 10.52 0.36 12.24 -0.2 c-0.88 1.48 -0.96 3.96 -0.28 5.52 c-1.8 -0.76 -4.08 -0.64 -5.96 -0.2 c-0.16 0.04 -0.36 0.08 -0.48 0.2 c-0.12 0.08 -0.2 0.24 -0.24 0.36 c-0.64 1.4 -0.16 4.44 0 4.48 c1.04 0.44 3.16 0.32 4.72 -0.64 c-0.64 1.68 -0.48 4.32 0.36 5.84 c-1.6 -0.72 -3.44 -0.72 -5.28 -0.4 c0.12 3.76 0.28 7.44 2.08 10.72 c-1.68 -0.68 -5.44 -0.64 -6.92 0.4 c1.44 -8.6 1.36 -17.48 -0.24 -26.08 z M21.061 14 c-2.2 7.52 -1 23.6 0.24 25.88 c-1.68 -0.68 -5.84 -0.64 -7.32 0.4 c0.96 -8.44 1.36 -19.8 -0.6 -26 c2.4 0.68 5.96 0.28 7.68 -0.28 z M28.842000000000002 34.8 c2.8 0.2 4.08 0 6.84 -0.64 c-0.56 1.24 -0.84 2.64 -0.76 4 c0.04 0.76 0.2 1.52 0.68 2.12 c-1 -0.36 -2 -0.36 -3.08 -0.4 c-2.88 -0.16 -7.36 0.08 -10.24 0.36 c0.88 -1.84 0.72 -3.4 0.12 -5.2 c3.48 -4.4 6.28 -10.08 7.48 -15.52 c-2.8 -0.2 -4.28 0 -7.04 0.64 c0.56 -1.24 1.04 -4.12 0.08 -6.12 c3.8 0.88 9.56 0.72 12.76 0.04 c-0.64 1.72 -0.48 3.76 0.48 5.32 c-3.2 3.6 -5.76 9.84 -7.32 15.4 z M43.983000000000004 34.8 c2.8 0.2 4.08 0 6.84 -0.64 c-0.56 1.24 -0.84 2.64 -0.76 4 c0.04 0.76 0.2 1.52 0.68 2.12 c-1 -0.36 -2 -0.36 -3.08 -0.4 c-2.88 -0.16 -7.36 0.08 -10.24 0.36 c0.88 -1.84 0.72 -3.4 0.12 -5.2 c3.48 -4.4 6.28 -10.08 7.48 -15.52 c-2.8 -0.2 -4.28 0 -7.04 0.64 c0.56 -1.24 1.04 -4.12 0.08 -6.12 c3.8 0.88 9.56 0.72 12.76 0.04 c-0.64 1.72 -0.48 3.76 0.48 5.32 c-3.2 3.6 -5.76 9.84 -7.32 15.4 z M61.484 25.68 c5 0.8 4.08 9.12 3.08 11.08 c-0.76 1.56 -2.24 2.84 -4 3.12 c-0.96 0.16 -2 -0.04 -3 -0.2 c-1.6 -0.28 -3.56 -0.4 -5 0.4 c1.6 -8.6 1.68 -17.44 0.24 -26.08 c0.52 0.48 2.96 0.68 5.48 0.32 c4.52 -0.68 6.8 3.12 5.84 7.24 c-0.4 1.64 -1.44 3 -2.64 4.12 z M58.484 22.8 c2.64 -1.04 3 -5.2 -0.04 -4.96 c-0.48 2.08 -0.2 4.6 0.04 4.96 z M58.644 35.72 c1.84 -0.56 3.32 -5.76 -0.08 -5.76 c-0.76 2.4 -0.28 5.28 0.08 5.76 z M79.985 38.08 c-0.32 0.56 -0.72 1.12 -1.24 1.48 c-1.32 0.88 -3.64 0.8 -5.16 0.72 c-1.24 -0.08 -2.96 -0.16 -4.04 -0.84 c-1 -0.64 -1.64 -1.76 -2 -2.92 c-0.32 -1.16 -0.4 -2.36 -0.48 -3.56 c-0.12 -2.76 0.08 -15.84 -1.08 -18.68 c2.4 0.68 5.56 0.28 7.28 -0.28 c-1.12 3.96 -1.64 12.72 -0.8 19.56 c0.32 2.72 2.24 2.76 2.8 2.2 c0.56 -0.52 0.8 -1.28 0.92 -2.08 c0.08 -0.68 0.08 -1.4 0.12 -2.12 c0.12 -6.32 0 -12.92 -0.92 -17.28 c2.4 0.68 5.6 0.28 7.32 -0.28 c-0.2 0.08 -0.68 3.32 -0.76 4.12 c-0.64 6.52 -0.32 12.84 -0.92 16.6 c-0.16 1 -0.36 2 -0.8 2.92 c-0.08 0.12 -0.16 0.28 -0.24 0.44 z M90.526 34.8 c2.8 0.2 4.08 0 6.84 -0.64 c-0.56 1.24 -0.84 2.64 -0.76 4 c0.04 0.76 0.2 1.52 0.68 2.12 c-1 -0.36 -2 -0.36 -3.08 -0.4 c-2.88 -0.16 -7.36 0.08 -10.24 0.36 c0.88 -1.84 0.72 -3.4 0.12 -5.2 c3.48 -4.4 6.28 -10.08 7.48 -15.52 c-2.8 -0.2 -4.28 0 -7.04 0.64 c0.56 -1.24 1.04 -4.12 0.08 -6.12 c3.8 0.88 9.56 0.72 12.76 0.04 c-0.64 1.72 -0.48 3.76 0.48 5.32 c-3.2 3.6 -5.76 9.84 -7.32 15.4 z M105.667 34.8 c2.8 0.2 4.08 0 6.84 -0.64 c-0.56 1.24 -0.84 2.64 -0.76 4 c0.04 0.76 0.2 1.52 0.68 2.12 c-1 -0.36 -2 -0.36 -3.08 -0.4 c-2.88 -0.16 -7.36 0.08 -10.24 0.36 c0.88 -1.84 0.72 -3.4 0.12 -5.2 c3.48 -4.4 6.28 -10.08 7.48 -15.52 c-2.8 -0.2 -4.28 0 -7.04 0.64 c0.56 -1.24 1.04 -4.12 0.08 -6.12 c3.8 0.88 9.56 0.72 12.76 0.04 c-0.64 1.72 -0.48 3.76 0.48 5.32 c-3.2 3.6 -5.76 9.84 -7.32 15.4 z" fill="#ffffff"></path></g></svg>