<svg xmlns:xlink="http://www.w3.org/1999/xlink" xmlns="http://www.w3.org/2000/svg" width="263.7508935423679" height="277.32501220703125" viewBox="0 0 312.5 328.5830244998806" class="css-1j8o68f"><defs id="SvgjsDefs1264"></defs><g id="SvgjsG1265" featurekey="rootContainer" transform="matrix(3.1383286545726086,0,0,3.1383286545726086,0,-0.6276657402674699)" fill="#FFD803"><g xmlns="http://www.w3.org/2000/svg" fill="#FFD803"><path d="M99.4 43.1c0-.4-.1-.8-.1-1.2l-.2-1.2c-.2-1-.4-2-.7-3l-.4-1.4-.4-1.4-.5-1.6-.2-.8-.3-.8-.6-1.5-.6-1.5a13.7 13.7 0 0 0-.8-1.6l-.4-.7-.2-.3-.2-.3-1.8-2.5c-.9-1.1-1-1-.4.3s1.4 3.2 2.1 4.8l.3.6.2.6.5 1.3.5 1.3.3.7.2.7.6 1.8.4 1.8q.3 1.5.5 3c-.3-.7-.6-1.5-.9-2.1s-1.2-1.6-.9-.1l.2 1.1.3 1.3.2.7.2.7.4 1.5.4 1.5.4 1.4c.2.8.4 1.5.6 2.1s.6 1.9.8.8 0-.5.1-.6a7 7 0 0 0 .4-1.4 15.9 15.9 0 0 0 .1-3.9zM20 11.7l1.2-.7 1.3-.7.7-.4.7-.4 1.4-.9 1.3-.7.9-.5.9-.4.8-.5.8-.4 1.5-.9 1.5-.8.6-.5c.1-.1.2-.3.2-.3l-.6-.2-1.2.1-1.7.5-1 .4-1 .5-1.3.8-.4.2-.4.3-.8.5-.8.5-.8.6-1.1.8-1 .8-.9.8-.8.8c-1.1.9-.9 1.3 0 .7zM26.7 92l-1-.8-1.4-1.1-.7-.5-.7-.5-1.5-1.1-1.4-1-.4-.3-.3-.3-.7-.5-.7-.5-.7-.5-1.2-1.1-1.3-1.1-.4-.3-.9-.6.2.4.6.9.5.6.5.7.2.3.3.3 1.2 1.4 1.5 1.4.4.3.4.3.9.7.7.6.8.5 1.6.9 1.6.8 1.6.7c.7.3 1.2.4 1.2.3l-.2-.2-.3-.2zM6.1 29.8l.6-.9.7-1.1.4-.6.4-.6.8-1.3.8-1.3.7-1.2 1.2-2.1c.3-.6.4-1 .2-1l-.4.2-.3.3-.4.4-.8.9-.4.5-.4.5-.7 1-.7 1A37.7 37.7 0 0 0 5.6 29c-.6 1.8-.4 2 .5.8zM64.6 3a33.2 33.2 0 0 1 7.5 3.3l1.3.7 1.2.7 1 .6.8.5 1.2.6c.1 0 .1 0 0-.1l-.3-.4-1.4-1.3L74 6.5l-.8-.4-.8-.4-.8-.4-.8-.3-1.6-.7-1.6-.8-1.3-.5-1.5-.5c-.8-.2-1.6-.4-1.7-.2s.4.4 1.5.7zM46.8.5h3.7L50 .2h-3.2a1.8 1.8 0 0 0-.9.4z" fill="#FFD803"></path><path d="M16.4 89.4a3.6 3.6 0 0 0-.6-1.1l-.6-.8-.8-.9-.9-1-.9-1-.4-.5-.2-.3-.2-.3-.8-1.1-.4-.5-.4-.5-.7-1.1-.4-.5-.3-.6-.6-1.1-.2-.3-.2-.3-.3-.7-.3-.7-.3-.7c-.4-.9-.8-1.8-1.2-2.8l-.5-1.4-.5-1.4-.2-.7-.2-.7-.4-1.4q-.6-2-1-4v.2l.4 1.4.5 1.8.8 2.2.4.7.4.7.8 1.5.9 1.5 1 1.5c.4.6.5.5.2-.3l-.3-.8-.4-.9-.8-1.8-.8-1.9-.2-.5-.2-.5-.4-1-.3-.6-.2-.6-.5-1.3a48.8 48.8 0 0 1-1.9-9.2v-.3c0-.5 0-1.1.1-1.6A76 76 0 0 1 4 43.3 52.2 52.2 0 0 1 7 34c.4-.9.8-1.7 1.2-2.6l.8-1.2.7-1.2.8-1.2.8-1.2c.6-.7 1.2-1.5 1.8-2.2l.7-.8.4-.4.4-.4.8-.8.4-.4.2-.2.2-.2 1.7-1.5 1.8-1.5 1.2-1.1.6-.6.7-.5 1.4-1.1L25 14l.3-.3.3-.2.5-.3.3-.4c0-.1-.5 0-1.5.4l-1.3.6a35.5 35.5 0 0 0-7 5.1l-1 1.1-.5.6-.5.6-1 1.1-1 1.2c-1.3 1.6-2.5 3.3-3.7 5L8 29.6l-.4.5-.2.3-.2.3-.7 1.1-.7 1.1-.6 1-.3.5-.3.5-.9 1.9-.8 1.9-.2.5-.2.5-.3.8v-.8l.2-1.1v-.7l-.2.7-.3 1.1.1 1.2-.2 1.1-.2 1.1-.2 1.3-.4 1.7c-.3 1.2-.5 2.4-.6 3.6S.2 52 .1 53.2 0 55.6 0 56.8a40.4 40.4 0 0 0 1 7.9 50.2 50.2 0 0 0 2.4 7.8l.8 1.9.9 1.8.2.5.2.4.5.9.5.9.5.9.6 1.1a28.1 28.1 0 0 0 7.5 8.1c.7.5 1.5 1 1.3.4z" fill="#FFD803"></path><path d="M39.7 103.2l-4.9-1.9-.6-.3-.6-.3-1.3-.6-1.3-.6-.7-.3-.7-.3-1.7-.9-1.5-.9a76.3 76.3 0 0 1-6.8-5.1l-1.7-1.5c-1.3-1.1-2-1.1-1.3-.1l.4.5a6.8 6.8 0 0 0 .7 1.2l1.2 1.4 1.6 1.4.9.7 1 .7 2.4 1.7 1.3.8 1.3.7 1.4.8.7.4.7.3 1.5.7 1.5.6 1.7.6.8.2h.8l2.9.4c1.6.3 1.6.1.3-.3zM62.3 8.4l.9.3.8.3 1.8.7 1.9.7.5.2.5.2 1 .4.6.2.6.3 1.2.6a48.6 48.6 0 0 1 7.9 5.1l1.3 1.1.6.6.6.6 1.2 1.2.3.3.3.3.6.6a37.1 37.1 0 0 1 2.6 2.7l2.4 2.9.7.9.7.9.5.5-.3-.7-.6-1-.7-1-.6-1-.6-.9a38.9 38.9 0 0 0-7-7.8l-.5-.5-.6-.4-1.1-.8-.6-.4-.6-.4-1.2-.8-1.2-.7-1.2-.7-1.3-.7-1.3-.7-1.4-.9-2.1-1-.7-.2-.8-.2-1.6-.4-1.8-.5-1.8-.3c-.8-.2-.7 0 .1.4zm36.3 51.8a26.8 26.8 0 0 0 .2-9.2c-.2-.9-.4-1.7-.7-1.2a3.5 3.5 0 0 0-.4 1.2c0 .3-.1.6-.1 1s-.1.7-.1 1.2 0 .9-.1 1.3v2.7l-.2 1.4v1.3l-.2 1.3v.6l-.2.6-.8 1.1v.7l-.3.7-.3.7-.3.7c-.4.9-.7 1.9-1.1 2.8l-.6 1.4-.6 1.3-.3.7-.3.7-.7 1.3a42.9 42.9 0 0 1-3.9 5.8 38.5 38.5 0 0 1-4.9 5 76.1 76.1 0 0 1-8.5 5.7 52.1 52.1 0 0 1-8.7 4.4l-2.7.9-1.4.4-1.4.3-1.4.3-1.4.2-2.9.2h-6.5l-2.3-.3h-3.4l-1.8-.2-1.7-.3h-1.9c-.1.1.4.4 1.3.8l1.3.5a35.5 35.5 0 0 0 8.7 1h6.2c2.1-.2 4.1-.5 6.2-.9l1.4-.3H63l1.2-.2 1.2-.3 1.1-.3h.6l.6-.2 1.9-.7 1.9-.8.5-.2.5-.2.9-.5.5-.2h.5l.9-.5 1.5-.9 1.5-.9 2.9-2.1 2.8-3.1 2.6-2.5a40.3 40.3 0 0 0 4.9-6.3 50.4 50.4 0 0 0 3.8-7.2l.8-1.9.7-1.9.2-.5v-.2l-.4 1.6-.3 1-.3.9-.3.9-.3.9-.4 1.7-.4 1.6a3.5 3.5 0 0 0-.1.7c0 .2 0 .3.1.4s.3-.1.6-.3l.8-1a10.6 10.6 0 0 0 .9-1.5l.4-1 .4-1 .4-1.5v-1l.2-1 .2-1 .2-1 .2-1.3v-1.2c0-.4.1-.8.1-1.2V61c0-.3-.1-1.3-.4-.8zM35.9 8.9h.8l1.3-.2 1.8-.2h1.8l1.7-.3 1.7-.5h3.4l1.7-.2h2.2l1.1-.2H53l-1-.9h-9.3l-.9.2L40 7l-1.7.6-1.6.7c-.7.3-1.1.5-1.1.6zm37.4 89.5a33.3 33.3 0 0 1-7.6 3l-1.4.4-1.3.4-1.1.3-.9.2-1.3.5c-.1.1 0 .1.1.1h.6l1.8-.2 2.1-.6.8-.3.8-.3.8-.3.8-.3 1.7-.6 1.7-.6 1.3-.6 1.4-.7c.8-.4 1.4-.9 1.3-1.1s-.6.2-1.6.7zm14.3-10.9l-.7.7-.9.8-.4.6-.2.3v.3l.5-.2.5-.3a14.4 14.4 0 0 0 1.8-1.9 1.8 1.8 0 0 0 .3-.9z" fill="#FFD803"></path><circle cx="43.8" cy="103.1" r=".6" fill="#FFD803"></circle><circle cx="48.7" cy="104.5" r=".4" fill="#FFD803"></circle><circle cx="31.8" cy="95.1" r=".3" fill="#FFD803"></circle><circle cx="47.3" cy="102.2" r=".3" fill="#FFD803"></circle><circle cx="76.6" cy="96.5" r=".5" fill="#FFD803"></circle><circle cx="80" cy="95.1" r=".9" fill="#FFD803"></circle><circle cx="82.8" cy="92.2" r=".4" fill="#FFD803"></circle><circle cx="90.5" cy="85.3" r=".7" fill="#FFD803"></circle><circle cx="92.4" cy="81.3" r=".4" fill="#FFD803"></circle><circle cx="93.9" cy="78.4" r=".3" fill="#FFD803"></circle><circle cx="43.2" cy="1.6" r=".4" fill="#FFD803"></circle><circle cx="36.8" cy="2.1" r=".4" fill="#FFD803"></circle><circle cx="40.5" cy="3.7" r=".3" fill="#FFD803"></circle><circle cx="55.7" cy="1" r=".4" fill="#FFD803"></circle><circle cx="60.1" cy="1.7" r=".4" fill="#FFD803"></circle><circle cx="79.5" cy="10.5" r=".5" fill="#FFD803"></circle><circle cx="82.1" cy="13.7" r=".3" fill="#FFD803"></circle><circle cx="85.9" cy="16.3" r=".5" fill="#FFD803"></circle><circle cx="87" cy="18.7" r=".2" fill="#FFD803"></circle><circle cx="84.4" cy="14.2" r=".2" fill="#FFD803"></circle><circle cx="18" cy="13.7" r=".3" fill="#FFD803"></circle><circle cx="12.6" cy="19.3" r=".6" fill="#FFD803"></circle></g></g><g id="SvgjsG1266" featurekey="symbolFeature-0" transform="matrix(1.213041627306238,0,0,1.213041627306238,95.50870860885632,61.86965776512288)" fill="#BAE8E8"><g xmlns="http://www.w3.org/2000/svg" transform="translate(0,-952.36218)" fill="#BAE8E8"><path style="text-indent:0;text-transform:none;direction:ltr;block-progression:tb;baseline-shift:baseline;color:;enable-background:accumulate;" d="m 69,962.36216 c 6.6037,0 12,5.39626 12,12 0,6.60373 -5.3963,12 -12,12 -6.6038,0 -12,-5.39629 -12,-12 0,-6.60372 5.3962,-12 12,-12 z m 0,4 c -4.442,0 -8,3.55802 -8,8 0,4.44197 3.558,8 8,8 4.4419,0 8,-3.55805 8,-8 0,-4.44196 -3.5581,-8 -8,-8 z m -41,0 c 11.5742,0 21,9.4257 21,21 0,11.5743 -9.4258,20.99994 -21,20.99994 -11.5743,0 -20.9999998,-9.42565 -20.9999998,-20.99994 0,-11.57428 9.4256998,-21 20.9999998,-21 z m 0,4 c -9.4125,0 -17,7.58748 -17,17 0,9.41253 7.5875,17.00004 17,17.00004 9.4124,0 17,-7.58752 17,-17.00004 0,-9.4125 -7.5876,-17 -17,-17 z m 2.2812,4.03125 c 6.1558,0.86327 10.75,5.99241 10.75,11.96875 0.022,1.04658 -0.9728,2.01134 -2.0624,2 -1.0687,-0.0203 -2.0218,-0.97331 -2,-2 0,-4.05868 -3.0696,-7.47623 -7.25,-8.0625 -1.0645,-0.14145 -1.8991,-1.20062 -1.7518,-2.22327 0.1472,-1.02265 1.2497,-1.82443 2.3142,-1.68298 z M 69,994.36216 c 13.2312,0 24,10.76884 24,24.00004 0,13.2312 -10.7688,24 -24,24 -13.2312,0 -24,-10.7688 -24,-24 0,-13.2312 10.7688,-24.00004 24,-24.00004 z m 0,4 c -11.0694,0 -20,8.93064 -20,20.00004 0,11.0694 8.9306,20 20,20 11.0694,0 20,-8.9306 20,-20 0,-11.0694 -8.9306,-20.00004 -20,-20.00004 z m 3.2812,4.06254 c 7.3132,1.0069 12.7813,6.9664 12.7813,13.9375 0,1.0891 -1.1334,2.0548 -2.2813,1.9375 -1.0027,-0.1 -1.8466,-0.9865 -1.8437,-1.9375 0,-5.071 -3.899,-9.3613 -9.2187,-10.0938 -1.0333,-0.1217 -1.873,-1.083 -1.8019,-2.0629 0.2035,-1.5144 1.1371,-1.8202 2.3643,-1.7808 z M 25,1014.3622 c 6.6037,0 12,5.3962 12,12 0,6.6037 -5.3963,12 -12,12 -6.6038,0 -12,-5.3963 -12,-12 0,-6.6037 5.3962,-12 12,-12 z m 0,4 c -4.442,0 -8,3.558 -8,8 0,4.442 3.558,8 8,8 4.4419,0 8,-3.558 8,-8 0,-4.442 -3.5581,-8 -8,-8 z" fill="#BAE8E8" fill-opacity="1" stroke="none" marker="none" visibility="visible" display="inline" overflow="visible"></path></g></g><g id="SvgjsG1267" featurekey="nameFeature-0" transform="matrix(1.7701149145875528,0,0,1.7701149145875528,56.00000126608485,166.2183928838874)" fill="#272343"><path d="M0 14.2 c4.24 0.96 10.52 0.36 12.24 -0.2 c-0.88 1.48 -0.96 3.96 -0.28 5.52 c-1.8 -0.76 -4.08 -0.64 -5.96 -0.2 c-0.16 0.04 -0.36 0.08 -0.48 0.2 c-0.12 0.08 -0.2 0.24 -0.24 0.36 c-0.64 1.4 -0.16 4.44 0 4.48 c1.04 0.44 3.16 0.32 4.72 -0.64 c-0.64 1.68 -0.48 4.32 0.36 5.84 c-1.6 -0.72 -3.44 -0.72 -5.28 -0.4 c0.12 3.76 0.28 7.44 2.08 10.72 c-1.68 -0.68 -5.44 -0.64 -6.92 0.4 c1.44 -8.6 1.36 -17.48 -0.24 -26.08 z M21.061 14 c-2.2 7.52 -1 23.6 0.24 25.88 c-1.68 -0.68 -5.84 -0.64 -7.32 0.4 c0.96 -8.44 1.36 -19.8 -0.6 -26 c2.4 0.68 5.96 0.28 7.68 -0.28 z M28.842000000000002 34.8 c2.8 0.2 4.08 0 6.84 -0.64 c-0.56 1.24 -0.84 2.64 -0.76 4 c0.04 0.76 0.2 1.52 0.68 2.12 c-1 -0.36 -2 -0.36 -3.08 -0.4 c-2.88 -0.16 -7.36 0.08 -10.24 0.36 c0.88 -1.84 0.72 -3.4 0.12 -5.2 c3.48 -4.4 6.28 -10.08 7.48 -15.52 c-2.8 -0.2 -4.28 0 -7.04 0.64 c0.56 -1.24 1.04 -4.12 0.08 -6.12 c3.8 0.88 9.56 0.72 12.76 0.04 c-0.64 1.72 -0.48 3.76 0.48 5.32 c-3.2 3.6 -5.76 9.84 -7.32 15.4 z M43.983000000000004 34.8 c2.8 0.2 4.08 0 6.84 -0.64 c-0.56 1.24 -0.84 2.64 -0.76 4 c0.04 0.76 0.2 1.52 0.68 2.12 c-1 -0.36 -2 -0.36 -3.08 -0.4 c-2.88 -0.16 -7.36 0.08 -10.24 0.36 c0.88 -1.84 0.72 -3.4 0.12 -5.2 c3.48 -4.4 6.28 -10.08 7.48 -15.52 c-2.8 -0.2 -4.28 0 -7.04 0.64 c0.56 -1.24 1.04 -4.12 0.08 -6.12 c3.8 0.88 9.56 0.72 12.76 0.04 c-0.64 1.72 -0.48 3.76 0.48 5.32 c-3.2 3.6 -5.76 9.84 -7.32 15.4 z M61.484 25.68 c5 0.8 4.08 9.12 3.08 11.08 c-0.76 1.56 -2.24 2.84 -4 3.12 c-0.96 0.16 -2 -0.04 -3 -0.2 c-1.6 -0.28 -3.56 -0.4 -5 0.4 c1.6 -8.6 1.68 -17.44 0.24 -26.08 c0.52 0.48 2.96 0.68 5.48 0.32 c4.52 -0.68 6.8 3.12 5.84 7.24 c-0.4 1.64 -1.44 3 -2.64 4.12 z M58.484 22.8 c2.64 -1.04 3 -5.2 -0.04 -4.96 c-0.48 2.08 -0.2 4.6 0.04 4.96 z M58.644 35.72 c1.84 -0.56 3.32 -5.76 -0.08 -5.76 c-0.76 2.4 -0.28 5.28 0.08 5.76 z M79.985 38.08 c-0.32 0.56 -0.72 1.12 -1.24 1.48 c-1.32 0.88 -3.64 0.8 -5.16 0.72 c-1.24 -0.08 -2.96 -0.16 -4.04 -0.84 c-1 -0.64 -1.64 -1.76 -2 -2.92 c-0.32 -1.16 -0.4 -2.36 -0.48 -3.56 c-0.12 -2.76 0.08 -15.84 -1.08 -18.68 c2.4 0.68 5.56 0.28 7.28 -0.28 c-1.12 3.96 -1.64 12.72 -0.8 19.56 c0.32 2.72 2.24 2.76 2.8 2.2 c0.56 -0.52 0.8 -1.28 0.92 -2.08 c0.08 -0.68 0.08 -1.4 0.12 -2.12 c0.12 -6.32 0 -12.92 -0.92 -17.28 c2.4 0.68 5.6 0.28 7.32 -0.28 c-0.2 0.08 -0.68 3.32 -0.76 4.12 c-0.64 6.52 -0.32 12.84 -0.92 16.6 c-0.16 1 -0.36 2 -0.8 2.92 c-0.08 0.12 -0.16 0.28 -0.24 0.44 z M90.526 34.8 c2.8 0.2 4.08 0 6.84 -0.64 c-0.56 1.24 -0.84 2.64 -0.76 4 c0.04 0.76 0.2 1.52 0.68 2.12 c-1 -0.36 -2 -0.36 -3.08 -0.4 c-2.88 -0.16 -7.36 0.08 -10.24 0.36 c0.88 -1.84 0.72 -3.4 0.12 -5.2 c3.48 -4.4 6.28 -10.08 7.48 -15.52 c-2.8 -0.2 -4.28 0 -7.04 0.64 c0.56 -1.24 1.04 -4.12 0.08 -6.12 c3.8 0.88 9.56 0.72 12.76 0.04 c-0.64 1.72 -0.48 3.76 0.48 5.32 c-3.2 3.6 -5.76 9.84 -7.32 15.4 z M105.667 34.8 c2.8 0.2 4.08 0 6.84 -0.64 c-0.56 1.24 -0.84 2.64 -0.76 4 c0.04 0.76 0.2 1.52 0.68 2.12 c-1 -0.36 -2 -0.36 -3.08 -0.4 c-2.88 -0.16 -7.36 0.08 -10.24 0.36 c0.88 -1.84 0.72 -3.4 0.12 -5.2 c3.48 -4.4 6.28 -10.08 7.48 -15.52 c-2.8 -0.2 -4.28 0 -7.04 0.64 c0.56 -1.24 1.04 -4.12 0.08 -6.12 c3.8 0.88 9.56 0.72 12.76 0.04 c-0.64 1.72 -0.48 3.76 0.48 5.32 c-3.2 3.6 -5.76 9.84 -7.32 15.4 z" fill="#272343"></path></g><g id="SvgjsG1268" featurekey="sloganFeature-0" transform="matrix(0.3820042467041442,0,0,0.3820042467041442,96.73259746447627,246.22750125706494)" fill="#272343"><path d="M18.62 5.08 l2.3 0 l-4.76 14.92 l-2.36 0 l-2.88 -8.82 l-2.8 8.82 l-2.36 0 l-5.06 -14.92 l2.24 0 l3.96 11.16 l2.8 -8.8 l-0.76 -2.36 l2.24 0 l3.76 11.16 z M25.98 13.4 l0 6.6 l-2.16 0 l0 -14.92 l2.16 0 l0 6.12 q0.8 -0.4 1.9 -0.4 q0.4 0 1.94 0.18 q2.16 0.26 2.92 0.26 q1.16 0 2.02 -0.38 l0 -5.78 l2.18 0 l0 14.92 l-2.18 0 l0 -6.94 q-0.86 0.38 -2.02 0.38 q-0.76 0 -2.92 -0.26 q-1.54 -0.18 -1.94 -0.18 q-1.1 0 -1.9 0.4 z M43.52 14.02 l0 3.8 l9.2 0 l0 2.18 l-11.38 0 l0 -14.92 l10.5 0 l0 2.2 l-8.32 0 l0 4.52 q0.62 -0.36 1.38 -0.48 q0.56 -0.1 1.44 -0.1 l3.26 0 l0 2.22 l-3.26 0 q-0.82 0 -1.44 0.1 q-0.76 0.14 -1.38 0.48 z M56.660000000000004 7.18 l-1.74 -2.1 l2.82 0 l9.58 11.4 l0 -11.4 l2.2 0 l0 14.92 l-2.16 0 l-8.56 -10.26 l0 10.26 l-2.14 0 l0 -12.82 z M81.48 20 l-2.14 0 l0 -14.92 l2.14 0 l0 14.92 z M96.98 7.279999999999999 l-5.26 0 l0 12.72 l-2.12 0 l0 -12.72 l-5.32 0 l0 -2.2 l12.7 0 l0 2.2 z M117.98000000000002 7 l-1.4 1.64 q-0.82 -0.84 -1.96 -1.32 t-2.4 -0.48 q-1.64 0 -2.99 0.74 t-2.11 2.02 q-0.78 1.34 -0.78 2.98 q0 1.56 0.84 2.88 q0.8 1.24 2.15 1.97 t2.91 0.73 q1.44 0 2.68 -0.62 t2.06 -1.72 l1.34 1.82 q-1.14 1.28 -2.73 1.99 t-3.37 0.71 q-2.22 0 -4.08 -1.08 q-1.82 -1.04 -2.86 -2.86 q-1.08 -1.86 -1.08 -4.08 q0 -2.14 1.14 -3.94 q1.08 -1.72 2.93 -2.73 t3.97 -1.01 q1.66 0 3.16 0.64 q1.46 0.6 2.58 1.72 z M134.42000000000002 12.440000000000001 q0 -1.6 -0.82 -2.9 q-0.78 -1.26 -2.13 -1.98 t-2.93 -0.72 q-1.64 0 -2.99 0.74 t-2.11 2.02 q-0.78 1.34 -0.78 2.98 q0 1.56 0.84 2.88 q0.8 1.24 2.15 1.97 t2.92 0.73 t2.92 -0.76 t2.13 -2.04 q0.8 -1.34 0.8 -2.92 z M136.58 12.559999999999999 q0 2.16 -1.12 3.98 q-1.08 1.74 -2.93 2.77 t-3.99 1.03 q-2.22 0 -4.08 -1.08 q-1.82 -1.04 -2.86 -2.86 q-1.08 -1.86 -1.08 -4.08 q0 -2.14 1.14 -3.94 q1.08 -1.72 2.93 -2.73 t3.97 -1.01 q2.18 0 4.04 1.06 q1.82 1.04 2.88 2.82 q1.1 1.86 1.1 4.04 z M146.48000000000002 20.34 q-2.1 0 -3.61 -0.73 t-2.3 -2.11 t-0.79 -3.3 l0 -9.12 l2.16 0 l0 9.12 q0 1.92 1.18 2.94 t3.36 1.02 t3.36 -1.02 t1.18 -2.94 l0 -9.12 l2.16 0 l0 9.12 q0 1.92 -0.79 3.3 t-2.3 2.11 t-3.61 0.73 z M157.82000000000002 7.18 l-1.74 -2.1 l2.82 0 l9.58 11.4 l0 -11.4 l2.2 0 l0 14.92 l-2.16 0 l-8.56 -10.26 l0 10.26 l-2.14 0 l0 -12.82 z M186.18000000000004 7.279999999999999 l-5.26 0 l0 12.72 l-2.12 0 l0 -12.72 l-5.32 0 l0 -2.2 l12.7 0 l0 2.2 z M200.58000000000004 15.46 q0 1.46 -0.88 2.6 q-0.86 1.08 -2.37 1.68 t-3.41 0.6 q-1.74 0 -3.38 -0.81 t-2.76 -2.25 l1.56 -1.46 q1.94 2.34 4.58 2.34 q1.16 0 2.12 -0.28 q1.06 -0.32 1.64 -0.9 q0.66 -0.64 0.66 -1.52 q0 -1.06 -0.66 -1.6 q-0.56 -0.46 -1.66 -0.6 q-0.64 -0.08 -2.1 -0.08 q-2.68 0 -4.09 -0.98 t-1.41 -2.88 q0 -1.2 0.71 -2.28 t1.95 -1.72 q1.28 -0.68 2.84 -0.68 q1.76 0 3.18 0.54 q1.52 0.58 2.82 1.82 l-1.36 1.6 q-1.22 -0.98 -2.22 -1.37 t-2.42 -0.39 q-0.82 0 -1.53 0.34 t-1.13 0.91 t-0.42 1.21 q0 1.72 3.18 1.72 q2.54 0 4.02 0.52 q1.4 0.5 2 1.52 q0.54 0.9 0.54 2.4 z M214.14000000000001 11.64 q1.34 -1.4 2.42 -3.12 t1.72 -3.44 l2.5 0 q-1.02 2.38 -2.48 4.56 q-1.32 1.98 -3.08 3.9 l0 6.46 l-2.16 0 l0 -6.46 q-1.76 -1.92 -3.08 -3.9 q-1.46 -2.18 -2.48 -4.56 l2.5 0 q0.64 1.72 1.72 3.44 t2.42 3.12 z M236.38000000000002 12.440000000000001 q0 -1.6 -0.82 -2.9 q-0.78 -1.26 -2.13 -1.98 t-2.93 -0.72 q-1.64 0 -2.99 0.74 t-2.11 2.02 q-0.78 1.34 -0.78 2.98 q0 1.56 0.84 2.88 q0.8 1.24 2.15 1.97 t2.92 0.73 t2.92 -0.76 t2.13 -2.04 q0.8 -1.34 0.8 -2.92 z M238.54000000000002 12.559999999999999 q0 2.16 -1.12 3.98 q-1.08 1.74 -2.93 2.77 t-3.99 1.03 q-2.22 0 -4.08 -1.08 q-1.82 -1.04 -2.86 -2.86 q-1.08 -1.86 -1.08 -4.08 q0 -2.14 1.14 -3.94 q1.08 -1.72 2.93 -2.73 t3.97 -1.01 q2.18 0 4.04 1.06 q1.82 1.04 2.88 2.82 q1.1 1.86 1.1 4.04 z M248.44000000000003 20.34 q-2.1 0 -3.61 -0.73 t-2.3 -2.11 t-0.79 -3.3 l0 -9.12 l2.16 0 l0 9.12 q0 1.92 1.18 2.94 t3.36 1.02 t3.36 -1.02 t1.18 -2.94 l0 -9.12 l2.16 0 l0 9.12 q0 1.92 -0.79 3.3 t-2.3 2.11 t-3.61 0.73 z M266.94000000000005 14.02 l0 5.98 l-2.18 0 l0 -14.92 l10.5 0 l0 2.2 l-8.32 0 l0 4.52 q0.62 -0.36 1.38 -0.48 q0.56 -0.1 1.44 -0.1 l3.26 0 l0 2.22 l-3.26 0 q-0.82 0 -1.44 0.1 q-0.76 0.14 -1.38 0.48 z M280.8 20 l-2.14 0 l0 -14.92 l2.14 0 l0 14.92 z M296.14000000000004 20 l-12.14 0 l0 -2.2 l8.4 -10.52 l-7.94 0 l0 -2.2 l10.94 0 l0 2.12 l-8.68 10.62 l9.42 0 l0 2.18 z M310.28000000000003 20 l-12.14 0 l0 -2.2 l8.4 -10.52 l-7.94 0 l0 -2.2 l10.94 0 l0 2.12 l-8.68 10.62 l9.42 0 l0 2.18 z" fill="#272343"></path></g></svg>